<svg width="1440" height="900" viewBox="0 0 1440 900" fill="none" xmlns="http://www.w3.org/2000/svg">
  <!-- Background -->
  <rect width="1440" height="900" fill="#F4F6F7"/>

  <!-- Nav Bar -->
  <rect width="1440" height="64" fill="#2C3E50"/>
  <text x="40" y="40" font-family="Inter, sans-serif" font-size="20" font-weight="700" fill="white">📚 LibraryApp</text>
  <rect x="200" y="22" width="60" height="22" rx="4" fill="#E74C3C"/>
  <text x="230" y="37" font-family="Inter, sans-serif" font-size="11" font-weight="700" fill="white" text-anchor="middle">ADMIN</text>
  <rect x="1300" y="16" width="100" height="32" rx="6" fill="#F5A623"/>
  <text x="1350" y="37" font-family="Inter, sans-serif" font-size="13" fill="white" text-anchor="middle">Logout</text>

  <!-- Sidebar -->
  <rect x="0" y="64" width="220" height="836" fill="#2C3E50"/>
  <text x="110" y="116" font-family="Inter, sans-serif" font-size="13" font-weight="600" fill="#BDC3C7" text-anchor="middle">MENU</text>

  <!-- Sidebar items -->
  <rect x="0" y="128" width="220" height="44" fill="#34495E"/>
  <text x="28" y="155" font-family="Inter, sans-serif" font-size="14" fill="white">📊  Dashboard</text>

  <rect x="0" y="172" width="220" height="44" fill="#F5A623"/>
  <text x="28" y="199" font-family="Inter, sans-serif" font-size="14" font-weight="600" fill="white">📚  Manage Books</text>

  <rect x="0" y="216" width="220" height="44" fill="none"/>
  <text x="28" y="243" font-family="Inter, sans-serif" font-size="14" fill="#BDC3C7">👥  Manage Users</text>

  <rect x="0" y="260" width="220" height="44" fill="none"/>
  <text x="28" y="287" font-family="Inter, sans-serif" font-size="14" fill="#BDC3C7">⚠️  Overdue Loans</text>

  <!-- Main Content -->
  <!-- Page Title + Add Button -->
  <text x="256" y="100" font-family="Inter, sans-serif" font-size="22" font-weight="700" fill="#2C3E50">Manage Books</text>
  <rect x="1220" y="78" width="160" height="40" rx="8" fill="#F5A623"/>
  <text x="1300" y="103" font-family="Inter, sans-serif" font-size="13" font-weight="600" fill="white" text-anchor="middle">+ Add New Book</text>

  <!-- Table Header -->
  <rect x="240" y="130" width="1160" height="44" rx="6" fill="#2C3E50"/>
  <text x="260" y="157" font-family="Inter, sans-serif" font-size="13" font-weight="600" fill="white">Title</text>
  <text x="520" y="157" font-family="Inter, sans-serif" font-size="13" font-weight="600" fill="white">Author</text>
  <text x="720" y="157" font-family="Inter, sans-serif" font-size="13" font-weight="600" fill="white">Genre</text>
  <text x="880" y="157" font-family="Inter, sans-serif" font-size="13" font-weight="600" fill="white">Total</text>
  <text x="960" y="157" font-family="Inter, sans-serif" font-size="13" font-weight="600" fill="white">Available</text>
  <text x="1100" y="157" font-family="Inter, sans-serif" font-size="13" font-weight="600" fill="white">Actions</text>

  <!-- Table Rows -->
  <rect x="240" y="174" width="1160" height="48" fill="white" stroke="#E5E8E8" stroke-width="1"/>
  <text x="260" y="203" font-family="Inter, sans-serif" font-size="13" fill="#2C3E50">The Great Gatsby</text>
  <text x="520" y="203" font-family="Inter, sans-serif" font-size="13" fill="#7F8C8D">F. Scott Fitzgerald</text>
  <text x="720" y="203" font-family="Inter, sans-serif" font-size="13" fill="#7F8C8D">Fiction</text>
  <text x="900" y="203" font-family="Inter, sans-serif" font-size="13" fill="#7F8C8D">3</text>
  <text x="980" y="203" font-family="Inter, sans-serif" font-size="13" fill="#27AE60">2</text>
  <rect x="1102" y="186" width="60" height="28" rx="5" fill="#3498DB"/>
  <text x="1132" y="205" font-family="Inter, sans-serif" font-size="12" fill="white" text-anchor="middle">Edit</text>
  <rect x="1172" y="186" width="70" height="28" rx="5" fill="#E74C3C"/>
  <text x="1207" y="205" font-family="Inter, sans-serif" font-size="12" fill="white" text-anchor="middle">Delete</text>

  <rect x="240" y="222" width="1160" height="48" fill="#FAFAFA" stroke="#E5E8E8" stroke-width="1"/>
  <text x="260" y="251" font-family="Inter, sans-serif" font-size="13" fill="#2C3E50">1984</text>
  <text x="520" y="251" font-family="Inter, sans-serif" font-size="13" fill="#7F8C8D">George Orwell</text>
  <text x="720" y="251" font-family="Inter, sans-serif" font-size="13" fill="#7F8C8D">Dystopia</text>
  <text x="900" y="251" font-family="Inter, sans-serif" font-size="13" fill="#7F8C8D">2</text>
  <text x="980" y="251" font-family="Inter, sans-serif" font-size="13" fill="#E74C3C">0</text>
  <rect x="1102" y="234" width="60" height="28" rx="5" fill="#3498DB"/>
  <text x="1132" y="253" font-family="Inter, sans-serif" font-size="12" fill="white" text-anchor="middle">Edit</text>
  <rect x="1172" y="234" width="70" height="28" rx="5" fill="#E74C3C"/>
  <text x="1207" y="253" font-family="Inter, sans-serif" font-size="12" fill="white" text-anchor="middle">Delete</text>

  <rect x="240" y="270" width="1160" height="48" fill="white" stroke="#E5E8E8" stroke-width="1"/>
  <text x="260" y="299" font-family="Inter, sans-serif" font-size="13" fill="#2C3E50">Dune</text>
  <text x="520" y="299" font-family="Inter, sans-serif" font-size="13" fill="#7F8C8D">Frank Herbert</text>
  <text x="720" y="299" font-family="Inter, sans-serif" font-size="13" fill="#7F8C8D">Sci-Fi</text>
  <text x="900" y="299" font-family="Inter, sans-serif" font-size="13" fill="#7F8C8D">4</text>
  <text x="980" y="299" font-family="Inter, sans-serif" font-size="13" fill="#27AE60">3</text>
  <rect x="1102" y="282" width="60" height="28" rx="5" fill="#3498DB"/>
  <text x="1132" y="301" font-family="Inter, sans-serif" font-size="12" fill="white" text-anchor="middle">Edit</text>
  <rect x="1172" y="282" width="70" height="28" rx="5" fill="#E74C3C"/>
  <text x="1207" y="301" font-family="Inter, sans-serif" font-size="12" fill="white" text-anchor="middle">Delete</text>

  <rect x="240" y="318" width="1160" height="48" fill="#FAFAFA" stroke="#E5E8E8" stroke-width="1"/>
  <text x="260" y="347" font-family="Inter, sans-serif" font-size="13" fill="#2C3E50">Brave New World</text>
  <text x="520" y="347" font-family="Inter, sans-serif" font-size="13" fill="#7F8C8D">Aldous Huxley</text>
  <text x="720" y="347" font-family="Inter, sans-serif" font-size="13" fill="#7F8C8D">Dystopia</text>
  <text x="900" y="347" font-family="Inter, sans-serif" font-size="13" fill="#7F8C8D">2</text>
  <text x="980" y="347" font-family="Inter, sans-serif" font-size="13" fill="#27AE60">1</text>
  <rect x="1102" y="330" width="60" height="28" rx="5" fill="#3498DB"/>
  <text x="1132" y="349" font-family="Inter, sans-serif" font-size="12" fill="white" text-anchor="middle">Edit</text>
  <rect x="1172" y="330" width="70" height="28" rx="5" fill="#E74C3C"/>
  <text x="1207" y="349" font-family="Inter, sans-serif" font-size="12" fill="white" text-anchor="middle">Delete</text>

  <!-- Modal Overlay -->
  <rect width="1440" height="900" fill="#00000055"/>

  <!-- Modal Box -->
  <rect x="440" y="200" width="560" height="480" rx="12" fill="white"/>
  <text x="720" y="248" font-family="Inter, sans-serif" font-size="18" font-weight="700" fill="#2C3E50" text-anchor="middle">Add New Book</text>
  <line x1="460" y1="262" x2="980" y2="262" stroke="#E5E8E8" stroke-width="1"/>

  <text x="460" y="298" font-family="Inter, sans-serif" font-size="12" fill="#7F8C8D">Title</text>
  <rect x="460" y="306" width="520" height="44" rx="8" fill="#F8F9FA" stroke="#D5D8DC" stroke-width="1.5"/>
  <text x="480" y="333" font-family="Inter, sans-serif" font-size="13" fill="#BDC3C7">Book title...</text>

  <text x="460" y="372" font-family="Inter, sans-serif" font-size="12" fill="#7F8C8D">Author</text>
  <rect x="460" y="380" width="520" height="44" rx="8" fill="#F8F9FA" stroke="#D5D8DC" stroke-width="1.5"/>
  <text x="480" y="407" font-family="Inter, sans-serif" font-size="13" fill="#BDC3C7">Author name...</text>

  <text x="460" y="446" font-family="Inter, sans-serif" font-size="12" fill="#7F8C8D">Genre</text>
  <rect x="460" y="454" width="520" height="44" rx="8" fill="#F8F9FA" stroke="#D5D8DC" stroke-width="1.5"/>
  <text x="480" y="481" font-family="Inter, sans-serif" font-size="13" fill="#BDC3C7">Genre...</text>

  <text x="460" y="520" font-family="Inter, sans-serif" font-size="12" fill="#7F8C8D">Number of Copies</text>
  <rect x="460" y="528" width="520" height="44" rx="8" fill="#F8F9FA" stroke="#D5D8DC" stroke-width="1.5"/>
  <text x="480" y="555" font-family="Inter, sans-serif" font-size="13" fill="#BDC3C7">e.g. 3</text>

  <rect x="460" y="600" width="240" height="48" rx="8" fill="#F5A623"/>
  <text x="580" y="629" font-family="Inter, sans-serif" font-size="14" font-weight="600" fill="white" text-anchor="middle">Save Book</text>
  <rect x="720" y="600" width="240" height="48" rx="8" fill="#ECF0F1"/>
  <text x="840" y="629" font-family="Inter, sans-serif" font-size="14" fill="#7F8C8D" text-anchor="middle">Cancel</text>
</svg>
